<?xml version="1.0" standalone="no"?><!DOCTYPE svg PUBLIC "-//W3C//DTD SVG 1.1//EN" "http://www.w3.org/Graphics/SVG/1.1/DTD/svg11.dtd"><svg t="1678593334921" class="icon" viewBox="0 0 1024 1024" version="1.1" xmlns="http://www.w3.org/2000/svg" p-id="5250" xmlns:xlink="http://www.w3.org/1999/xlink" width="200" height="200"><path d="M395.783102 513.936948c0 99.430013 81.351828 180.781841 180.781841 180.781841s180.781841-81.351828 180.781841-180.781841-81.351828-180.781841-180.781841-180.781841-180.781841 80.06053-180.781841 180.781841z" fill="#E9EAEB" p-id="5251"></path><path d="M331.218159 462.284994h-40.030265l-52.943253-77.477932H150.436318v-25.825978h102.01261l51.651955 77.477932h27.117276zM150.436318 501.02396h232.433795v25.825977h-232.433795z" fill="#2A5082" p-id="5252"></path><path d="M150.436318 371.894073m-38.738966 0a38.738966 38.738966 0 1 0 77.477932 0 38.738966 38.738966 0 1 0-77.477932 0Z" fill="#A3D4FF" p-id="5253"></path><path d="M150.436318 423.546028c-28.408575 0-51.651955-23.24338-51.651955-51.651955s23.24338-51.651955 51.651955-51.651954 51.651955 23.24338 51.651954 51.651954-23.24338 51.651955-51.651954 51.651955z m0-77.477932c-14.204288 0-25.825977 11.62169-25.825978 25.825977s11.62169 25.825977 25.825978 25.825977 25.825977-11.62169 25.825977-25.825977-11.62169-25.825977-25.825977-25.825977zM252.448928 668.892812H150.436318v-25.825977h87.808323l51.651954-77.477932h92.973518v25.825977h-80.060529z" fill="#2A5082" p-id="5254"></path><path d="M150.436318 655.979823m-38.738966 0a38.738966 38.738966 0 1 0 77.477932 0 38.738966 38.738966 0 1 0-77.477932 0Z" fill="#A3D4FF" p-id="5255"></path><path d="M150.436318 707.631778c-28.408575 0-51.651955-23.24338-51.651955-51.651955s23.24338-51.651955 51.651955-51.651954 51.651955 23.24338 51.651954 51.651954-23.24338 51.651955-51.651954 51.651955z m0-77.477932c-14.204288 0-25.825977 11.62169-25.825978 25.825977s11.62169 25.825977 25.825978 25.825978 25.825977-11.62169 25.825977-25.825978-11.62169-25.825977-25.825977-25.825977z" fill="#2A5082" p-id="5256"></path><path d="M150.436318 513.936948m-38.738966 0a38.738966 38.738966 0 1 0 77.477932 0 38.738966 38.738966 0 1 0-77.477932 0Z" fill="#A3D4FF" p-id="5257"></path><path d="M150.436318 565.588903c-28.408575 0-51.651955-23.24338-51.651955-51.651955s23.24338-51.651955 51.651955-51.651954 51.651955 23.24338 51.651954 51.651954-23.24338 51.651955-51.651954 51.651955z m0-77.477932c-14.204288 0-25.825977 11.62169-25.825978 25.825977s11.62169 25.825977 25.825978 25.825978 25.825977-11.62169 25.825977-25.825978-11.62169-25.825977-25.825977-25.825977zM282.148802 778.653216l-20.660782-14.204288 92.973518-134.295082h105.886507v25.825977h-91.682219z" fill="#2A5082" p-id="5258"></path><path d="M266.653216 772.196721m-38.738966 0a38.738966 38.738966 0 1 0 77.477932 0 38.738966 38.738966 0 1 0-77.477932 0Z" fill="#A3D4FF" p-id="5259"></path><path d="M266.653216 823.848676c-28.408575 0-51.651955-23.24338-51.651955-51.651955s23.24338-51.651955 51.651955-51.651954 51.651955 23.24338 51.651954 51.651954-23.24338 51.651955-51.651954 51.651955z m0-77.477932c-14.204288 0-25.825977 11.62169-25.825978 25.825977s11.62169 25.825977 25.825978 25.825978 25.825977-11.62169 25.825977-25.825978-11.62169-25.825977-25.825977-25.825977zM460.348045 397.72005h-104.595208l-94.264817-108.469104 19.369483-16.786885 86.517024 99.430012h92.973518z" fill="#2A5082" p-id="5260"></path><path d="M266.653216 281.503153m-38.738966 0a38.738966 38.738966 0 1 0 77.477932 0 38.738966 38.738966 0 1 0-77.477932 0Z" fill="#A3D4FF" p-id="5261"></path><path d="M266.653216 333.155107c-28.408575 0-51.651955-23.24338-51.651955-51.651954s23.24338-51.651955 51.651955-51.651955 51.651955 23.24338 51.651954 51.651955-23.24338 51.651955-51.651954 51.651954z m0-77.477932c-14.204288 0-25.825977 11.62169-25.825978 25.825978s11.62169 25.825977 25.825978 25.825977 25.825977-11.62169 25.825977-25.825977-11.62169-25.825977-25.825977-25.825978zM382.870113 501.02396h77.477932v25.825977h-77.477932z" fill="#2A5082" p-id="5262"></path><path d="M589.477932 641.775536v-50.360656h-206.607819v-25.825977h232.433796v27.117276l112.343001-76.186633-112.343001-81.351828v27.117276h-206.607818v-25.825978h180.781841v-51.651954L772.842371 516.519546z" fill="#2A5082" p-id="5263"></path><path d="M537.825977 501.02396h25.825978v25.825977h-25.825978zM486.174023 501.02396h25.825977v25.825977h-25.825977zM486.174023 371.894073h25.825977v25.825977h-25.825977zM486.174023 630.153846h25.825977v25.825977h-25.825977z" fill="#2A5082" p-id="5264"></path><path d="M589.477932 844.509458c-82.643127 0-161.412358-29.699874-223.394704-85.225725l16.786885-19.369483c56.81715 50.360656 130.421185 78.769231 206.607819 78.76923v25.825978zM925.215637 508.771753h-25.825977c0-148.499369-105.886507-277.629256-253.094578-304.746532l5.165195-25.825978c158.82976 30.991173 273.755359 169.160151 273.75536 330.57251zM759.929382 804.479193l-12.912989-21.952081c61.982346-36.156368 111.051702-92.973518 136.87768-160.121059l24.534679 9.039092c-28.408575 72.312736-81.351828 134.295082-148.49937 173.034048z" fill="#BCC0C4" p-id="5265"></path><path d="M677.286255 778.653216l-9.039092-24.534679c98.138714-36.156368 163.994956-131.712484 163.994956-236.307692 0-138.168979-112.343001-251.803279-251.803279-251.803279-63.273644 0-123.964691 23.24338-170.45145 67.147541l-18.078184-19.369483c51.651955-47.778058 118.799496-73.604035 188.529634-73.604035 152.373266 0 277.629256 123.964691 277.629256 277.629256 0 116.216898-73.604035 220.812106-180.781841 260.842371z" fill="#BCC0C4" p-id="5266"></path><path d="M357.044136 436.459016h25.825977v25.825978h-25.825977z" fill="#2A5082" p-id="5267"></path></svg>