<?xml version="1.0" standalone="no"?><!DOCTYPE svg PUBLIC "-//W3C//DTD SVG 1.1//EN" "http://www.w3.org/Graphics/SVG/1.1/DTD/svg11.dtd"><svg t="1678593367466" class="icon" viewBox="0 0 1080 1024" version="1.1" xmlns="http://www.w3.org/2000/svg" p-id="5610" xmlns:xlink="http://www.w3.org/1999/xlink" width="210.9375" height="200"><path d="M536.763399 455.111111m-348.026144 0a348.026144 348.026144 0 1 0 696.052287 0 348.026144 348.026144 0 1 0-696.052287 0Z" fill="#E9EAEB" p-id="5611"></path><path d="M536.763399 222.201307c-128.501961-4.015686-234.248366 103.069281-234.248366 235.586928 0 68.266667 28.109804 129.840523 72.282353 172.67451 38.818301 37.479739 74.959477 70.943791 74.959477 125.824837h174.013072c0-54.881046 34.802614-88.345098 74.959477-125.824837 44.172549-42.833987 72.282353-104.407843 72.282353-172.67451 0-132.517647-105.746405-239.602614-234.248366-235.586928z" fill="#FFFFFF" p-id="5612"></path><path d="M637.155556 756.287582h-26.771242c0-60.235294 37.479739-96.376471 76.298039-133.856209l1.338562-1.338563c44.172549-41.495425 68.266667-101.730719 68.266667-163.304575s-24.094118-119.132026-68.266667-161.966013c-41.495425-40.156863-95.037908-61.573856-152.596078-60.235294-57.55817-1.338562-112.439216 20.078431-153.934641 60.235294-44.172549 42.833987-68.266667 100.392157-68.266667 161.966013s25.43268 120.470588 68.266667 163.304575l1.338562 1.338563c40.156863 37.479739 76.298039 73.620915 76.298039 133.856209h-26.771241c0-49.526797-30.786928-77.636601-68.266667-115.11634l-1.338562-1.338562c-48.188235-46.849673-76.298039-113.777778-76.298039-182.044445s28.109804-135.194771 76.298039-182.044444c46.849673-45.511111 108.423529-69.605229 172.67451-66.928105 64.25098-1.338562 124.486275 22.755556 171.335947 66.928105 48.188235 46.849673 76.298039 112.439216 76.29804 182.044444 0 68.266667-28.109804 135.194771-76.29804 182.044445l-1.338562 1.338562c-37.479739 37.479739-68.266667 65.589542-68.266666 115.11634z" fill="#2A5082" p-id="5613"></path><path d="M704.08366 488.575163v-66.928104h-44.172549c-2.677124-13.385621-6.69281-20.078431-12.047059-29.448366l32.12549-32.12549-46.849673-46.849674-32.12549 32.125491c-9.369935-5.354248-18.739869-9.369935-29.448366-12.047059v-44.172549h-66.928105v44.172549c-10.708497 2.677124-20.078431 6.69281-29.448366 12.047059L441.72549 311.884967l-46.849673 46.849674 32.12549 32.12549c-5.354248 9.369935-9.369935 16.062745-12.047059 29.448366h-44.172549v66.928104H414.954248c2.677124 13.385621 6.69281 20.078431 12.047059 29.448366L394.875817 548.810458l46.849673 46.849673 32.12549-32.12549c9.369935 5.354248 18.739869 9.369935 29.448366 12.047058v45.511111h66.928105V575.581699c10.708497-2.677124 20.078431-6.69281 29.448366-12.047058l32.12549 32.12549 46.849673-46.849673-32.12549-30.786929c5.354248-9.369935 9.369935-16.062745 12.047059-29.448366h45.511111z" fill="#A3D4FF" p-id="5614"></path><path d="M583.613072 635.816993h-93.699347v-49.526797c-4.015686-1.338562-9.369935-4.015686-13.38562-5.354248L441.72549 615.738562l-66.928104-65.589542 33.464052-33.464053c-2.677124-4.015686-4.015686-8.031373-5.354248-13.385621h-48.188236v-93.699346h48.188236c1.338562-5.354248 4.015686-10.708497 5.354248-14.724183L374.797386 360.073203l65.589542-65.589543 34.802614 34.802615c4.015686-2.677124 9.369935-4.015686 13.385621-5.354249v-48.188235h93.699347v48.188235c4.015686 1.338562 9.369935 4.015686 13.385621 5.354249l34.802614-33.464053 65.589543 66.928105-33.464053 34.802614c2.677124 4.015686 4.015686 9.369935 5.354249 14.724183h48.188235v93.699347H669.281046c-1.338562 5.354248-4.015686 9.369935-5.354249 13.385621l33.464053 33.464052-66.928105 66.928104-34.802614-34.802614c-4.015686 2.677124-9.369935 4.015686-13.385621 5.354248v45.511111z m-66.928105-26.771241h40.156863v-42.833987l9.369935-2.677124c9.369935-2.677124 18.739869-6.69281 26.771242-10.708497l9.369934-5.354249 29.448366 29.448366 28.109804-28.109803-29.448366-29.448366 6.692811-10.708497c4.015686-8.031373 8.031373-13.385621 9.369934-24.094118l2.677124-10.708497h42.833987v-40.156862h-42.833987l-2.677124-10.708497c-2.677124-12.047059-5.354248-17.401307-10.708497-25.43268l-5.354248-9.369934 29.448366-29.448366-28.109804-28.109804L602.352941 361.411765l-9.369934-5.354249c-8.031373-5.354248-17.401307-8.031373-26.771242-10.708496l-9.369935-2.677125v-41.495424h-40.156863v41.495424l-9.369934 2.677125c-9.369935 2.677124-18.739869 6.69281-26.771242 10.708496l-9.369935 5.354249-29.448366-29.448366-28.109804 28.109804 29.448366 29.448366-5.354248 9.369934c-5.354248 8.031373-8.031373 14.724183-10.708497 25.43268l-2.677124 10.708497h-42.833987v40.156862h42.833987l2.677124 10.708497c2.677124 10.708497 5.354248 16.062745 9.369935 24.094118l6.69281 10.708497-29.448366 28.109804 28.109804 28.109803 29.448366-29.448366 9.369935 5.354249c8.031373 4.015686 17.401307 8.031373 26.771242 10.708497l9.369934 2.677124v42.833987z" fill="#2A5082" p-id="5615"></path><path d="M536.763399 455.111111m-46.849674 0a46.849673 46.849673 0 1 0 93.699347 0 46.849673 46.849673 0 1 0-93.699347 0Z" fill="#FFFFFF" p-id="5616"></path><path d="M536.763399 515.346405c-33.464052 0-60.235294-26.771242-60.235294-60.235294s26.771242-60.235294 60.235294-60.235294 60.235294 26.771242 60.235294 60.235294-26.771242 60.235294-60.235294 60.235294z m0-93.699346c-18.739869 0-33.464052 14.724183-33.464053 33.464052s14.724183 33.464052 33.464053 33.464052 33.464052-14.724183 33.464052-33.464052-14.724183-33.464052-33.464052-33.464052zM562.196078 943.686275h-50.865359l-26.771242-26.771242h-21.416993v-26.771242H495.267974l26.771242 26.771242h29.448366l26.771242-26.771242h32.12549v26.771242H588.96732zM436.371242 783.058824h200.784314v26.771241h-200.784314zM436.371242 836.601307h200.784314v26.771242h-200.784314z" fill="#2A5082" p-id="5617"></path><path d="M169.22102 544.768l85.333333-22.862641 6.920366 25.86102-85.319948 22.862641zM262.144 719.209412l62.457307-62.457307 18.940654 18.927268-62.470693 62.470692zM428.179242 97.474092l25.847634-6.933752 22.876026 85.333333-25.86102 6.933752zM262.304627 201.748078l18.940654-18.940653 62.457307 62.470693-18.927268 18.927268zM169.957229 375.21234l6.920366-25.847634 85.333333 22.86264-6.933752 25.847634zM817.285856 372.026562l85.333334-22.86264 6.920366 25.847634-85.319948 22.86264zM818.12915 548.703373l6.920366-25.847634 85.333334 22.86264-6.933752 25.86102zM736.048523 675.799843l18.940653-18.927268 62.470693 62.470693-18.940653 18.927268zM602.513569 175.592575l22.86264-85.333333 25.86102 6.933751-22.862641 85.333334zM736.235922 245.478902l62.470692-62.470693 18.927268 18.927268-62.470692 62.470693z" fill="#BCC0C4" p-id="5618"></path></svg>