<?xml version="1.0" standalone="no"?><!DOCTYPE svg PUBLIC "-//W3C//DTD SVG 1.1//EN" "http://www.w3.org/Graphics/SVG/1.1/DTD/svg11.dtd"><svg t="1678593547409" class="icon" viewBox="0 0 1091 1024" version="1.1" xmlns="http://www.w3.org/2000/svg" p-id="5962" xmlns:xlink="http://www.w3.org/1999/xlink" width="213.0859375" height="200"><path d="M806.993377 226.500662h27.125828v81.377484h-27.125828z" fill="#BCC0C4" p-id="5963"></path><path d="M779.86755 253.62649h81.377483v27.125828h-81.377483zM183.099338 321.44106h27.125828v81.377483h-27.125828z" fill="#BCC0C4" p-id="5964"></path><path d="M155.97351 348.566887h81.377483v27.125828h-81.377483z" fill="#BCC0C4" p-id="5965"></path><path d="M888.370861 592.699338h27.125828v108.503311h-27.125828zM539.803974 919.565563c-6.781457 0-13.562914-1.356291-20.344371-4.068874L198.018543 769.017219l10.850331-24.413245 321.44106 146.47947c5.425166 2.712583 12.206623 2.712583 17.631788 0L922.278146 716.121854l10.850331 24.413245-372.980133 174.96159c-6.781457 2.712583-13.562914 4.068874-20.34437 4.068874z" fill="#2A5082" p-id="5966"></path><path d="M198.018543 773.086093c-36.619868-16.275497-56.964238-44.757616-56.964238-78.664901v-54.251656c0-33.907285 20.344371-65.101987 51.539072-78.6649l345.854305-155.97351c37.976159-17.631788 81.377483-17.631788 117.997351 0l268.545695 120.709934c14.919205 6.781457 23.056954 20.344371 23.056954 36.619867 0 16.275497-9.49404 29.838411-23.056954 36.619868L553.366887 766.304636c-13.562914 6.781457-29.838411 6.781457-43.401324 0l-272.61457-123.422517c-4.068874-1.356291-8.137748-1.356291-10.850331 0-2.712583 1.356291-4.068874 5.425166-4.068874 9.49404v61.033113h-27.125828v-61.033113c0-13.562914 6.781457-25.769536 17.631788-32.550993s24.413245-8.137748 36.619868-2.712583l272.614569 123.422516c6.781457 2.712583 14.919205 2.712583 21.700663 0l372.980132-168.180132c6.781457-2.712583 6.781457-9.49404 6.781457-10.850331 0-1.356291 0-8.137748-6.781457-10.850331l-268.545695-120.709934c-31.194702-13.562914-65.101987-13.562914-96.296689 0L204.8 585.917881c-21.700662 9.49404-36.619868 32.550993-36.619868 54.251655v54.251656c0 28.482119 21.700662 44.757616 40.688742 54.251656l-10.850331 24.413245z" fill="#2A5082" p-id="5967"></path><path d="M523.528477 267.189404c4.068874 1.356291 9.49404 2.712583 13.562914 2.712583 6.781457 1.356291 14.919205 0 25.769536-2.712583 12.206623-2.712583 27.125828-5.425166 44.757616-5.425166 13.562914 0 27.125828 1.356291 42.045033 5.425166 29.838411 8.137748 52.895364 27.125828 67.81457 54.251656 21.700662 39.33245 23.056954 94.940397 5.425165 153.260927-20.344371 67.81457-71.883444 119.353642-128.847682 128.847682-4.068874 1.356291-9.49404 1.356291-13.562914 1.356291-12.206623 0-25.769536-2.712583-35.263576-6.781457-9.49404-2.712583-18.988079-2.712583-27.125828 0-10.850331 4.068874-23.056954 6.781457-35.263576 6.781457-4.068874 0-9.49404 0-13.562914-1.356291-56.964238-9.49404-108.503311-62.389404-128.847682-128.847682-37.976159-123.422517 16.275497-179.030464 69.170861-202.087417 18.988079-8.137748 37.976159-12.206623 59.676821-12.206623" fill="#A3D4FF" p-id="5968"></path><path d="M579.136424 618.468874c-12.206623 0-25.769536-2.712583-39.33245-6.781457-6.781457-2.712583-12.206623-2.712583-18.98808 0-20.344371 6.781457-39.33245 8.137748-55.607947 5.425166-62.389404-10.850331-117.997351-66.458278-139.698013-138.341722-42.045033-139.698013 29.838411-196.662252 75.952318-218.362914 20.344371-9.49404 42.045033-13.562914 65.101986-13.562914v27.125828c-18.988079 0-36.619868 4.068874-54.251655 12.206622-69.170861 31.194702-89.515232 93.584106-61.033113 185.811921 18.988079 62.389404 66.458278 111.215894 117.997351 119.353642 12.206623 2.712583 27.125828 0 42.045033-4.068874 12.206623-4.068874 24.413245-4.068874 36.619868 0 14.919205 5.425166 29.838411 6.781457 42.045033 4.068874 51.539073-9.49404 99.009272-56.964238 117.997351-119.353642 16.275497-55.607947 14.919205-107.14702-4.068874-142.410596-12.206623-23.056954-33.907285-40.688742-59.676821-47.470199-12.206623-4.068874-25.769536-5.425166-37.976159-5.425165-16.275497 0-29.838411 2.712583-42.045033 5.425165-10.850331 2.712583-21.700662 5.425166-31.194702 2.712583-4.068874-1.356291-9.49404-1.356291-13.562914-2.712583l5.425165-27.125828c4.068874 1.356291 9.49404 1.356291 13.562914 2.712583 4.068874 1.356291 13.562914-1.356291 20.344371-2.712583 12.206623-2.712583 28.482119-6.781457 47.470199-6.781456 14.919205 0 29.838411 2.712583 44.757616 6.781456 33.907285 9.49404 59.676821 31.194702 75.952317 61.033113 23.056954 42.045033 25.769536 101.721854 6.781457 164.111258-21.700662 71.883444-78.664901 127.491391-139.698013 138.341722h-14.919205z" fill="#2A5082" p-id="5969"></path><path d="M375.692715 467.92053c-4.068874-12.206623-6.781457-23.056954-8.137748-33.907285l27.125828-4.068874c1.356291 9.49404 4.068874 18.988079 6.781457 29.83841l-25.769537 8.137749z m-10.850331-62.389404c0-36.619868 12.206623-67.81457 36.619868-89.515232l18.988079 20.344371c-18.988079 17.631788-28.482119 40.688742-27.125828 70.527152l-28.482119-1.356291zM539.803974 339.072848c-24.413245 0-50.182781-9.49404-69.170861-28.48212l18.988079-18.988079c27.125828 27.125828 71.883444 27.125828 100.365563 0l18.988079 18.988079c-18.988079 18.988079-44.757616 28.482119-69.17086 28.48212z" fill="#2A5082" p-id="5970"></path><path d="M618.468874 221.075497c-27.125828 44.757616-85.446358 59.676821-85.446357 59.676821s-13.562914-58.32053 13.562913-103.078146 85.446358-59.676821 85.446358-59.676821 13.562914 58.32053-13.562914 103.078146z" fill="#FFFFFF" p-id="5971"></path><path d="M523.528477 297.027815l-2.712583-13.562914c0-2.712583-13.562914-63.745695 16.275497-112.572186 29.838411-48.82649 90.871523-65.101987 93.584106-65.101987l13.562914-2.712582 2.712582 13.562914c0 2.712583 13.562914 63.745695-16.275496 112.572185-29.838411 48.82649-90.871523 65.101987-93.584106 65.101987l-13.562914 2.712583zM621.181457 135.629139c-17.631788 6.781457-46.113907 21.700662-62.389404 48.82649-16.275497 27.125828-16.275497 59.676821-14.919205 77.308609 17.631788-6.781457 46.113907-21.700662 62.389404-48.82649 17.631788-25.769536 17.631788-58.32053 14.919205-77.308609z" fill="#2A5082" p-id="5972"></path><path d="M549.298013 318.728477h-27.125828c0-24.413245-6.781457-70.527152-54.251655-108.503311l17.631788-21.700663c55.607947 44.757616 63.745695 100.365563 63.745695 130.203974z" fill="#2A5082" p-id="5973"></path><path d="M278.039735 226.500662c-29.838411 0-54.251656-24.413245-54.251656-54.251655s24.413245-54.251656 54.251656-54.251656 54.251656 24.413245 54.251656 54.251656-24.413245 54.251656-54.251656 54.251655z m0-81.377483c-14.919205 0-27.125828 12.206623-27.125828 27.125828s12.206623 27.125828 27.125828 27.125827 27.125828-12.206623 27.125828-27.125827-12.206623-27.125828-27.125828-27.125828z" fill="#BCC0C4" p-id="5974"></path></svg>